<svg xmlns="http://www.w3.org/2000/svg" width="1920" height="800" viewBox="0 0 1920 800"><rect width="1920" height="800" fill="#1C2220"/><path d="M1270 0h650v800H970Z" fill="#252D29"/><path d="M1760 0h160v800h-470Z" fill="#E2232E"/><path d="M1200 0l-390 800 M1450 0l-390 800" stroke="#414C45" stroke-width="1"/><g transform="translate(970 380)" fill="none" stroke="#FAFAF7" stroke-width="5" opacity=".85"><path d="M0 140l45-80 110-12 100-75h250l120 85 117 35 35 47v72H0z"/><path d="M172 48h390 M275-19l-45 67 M475-19l47 67"/><circle cx="155" cy="204" r="55" fill="#252D29"/><circle cx="610" cy="204" r="55" fill="#252D29"/><path d="M23 129h98 M605 108h89"/></g></svg>